<svg xmlns="http://www.w3.org/2000/svg" width="340" height="33" viewBox="0 0 340 33">
  <g id="input" transform="translate(-290 -292)">
    <rect id="Прямоугольник_11" data-name="Прямоугольник 11" width="340" height="1" transform="translate(290 324)" fill="#fff" opacity="0.25"/>
    <text id="Your_phone" data-name="Your phone" transform="translate(335 308)" fill="#fff" font-size="16" font-family="PTSans-Regular, PT Sans"><tspan x="0" y="0">Your phone</tspan></text>
    <path id="_ionicons_svg_ios-call" d="M78.424,75.781a12.6,12.6,0,0,0-2.632-1.761c-.789-.379-1.078-.371-1.636.031-.465.336-.765.648-1.3.531a10.991,10.991,0,0,1-4.545-4.546c-.113-.539.2-.836.531-1.3.4-.558.414-.847.031-1.636a12.351,12.351,0,0,0-1.761-2.632c-.574-.574-.7-.449-1.019-.336a5.8,5.8,0,0,0-.933.5,2.815,2.815,0,0,0-1.121,1.183c-.223.48-.48,1.375.832,3.71a20.7,20.7,0,0,0,3.639,4.854l0,0,0,0a20.78,20.78,0,0,0,4.854,3.64c2.335,1.312,3.229,1.054,3.71.832a2.767,2.767,0,0,0,1.183-1.121,5.8,5.8,0,0,0,.5-.933C78.873,76.484,79,76.355,78.424,75.781Z" transform="translate(241.143 229.965)" fill="#fff"/>
  </g>
</svg>
